<svg xmlns="http://www.w3.org/2000/svg" viewBox="0 0 1200 480" preserveAspectRatio="xMidYMid slice">
<!-- Datos: © OpenStreetMap contributors (ODbL). Generado con clubs/_plantilla/generar-mapa.js -->
<rect width="1200" height="480" fill="#1c1b1a"/>

<g fill="none" stroke="#1f2a30" stroke-width="3"><path d="M1591.3 -6440.4L1591.8 -6430.5L1578.0 -6278.3L1648.9 -6069.0L1638.8 -6010.6L1635.8 -5952.7L1634.3 -5872.5L1655.1 -5792.8L1671.9 -5730.9L1697.5 -5679.1L1750.3 -5592.5L1886.9 -5468.9L1994.6 -5350.2L2047.7 -5301.5L2068.6 -5246.0L2061.3 -5142.6L2025.6 -5072.5L1978.7 -4986.0L1921.8 -4928.5L1887.4 -4859.3L1835.4 -4788.4L1733.6 -4719.8L1675.7 -4716.2L1576.6 -4770.1L1538.3 -4775.6L1455.8 -4807.5L1397.7 -4817.9L1298.9 -4823.8L1268.8 -4822.4L1221.7 -4802.6L1182.3 -4766.1L1171.7 -4739.3L1176.3 -4710.1L1166.3 -4662.5L1138.0 -4598.7L1107.8 -4531.4L1094.7 -4483.1L1064.2 -4393.3L1039.1 -4326.5L1013.6 -4177.6L1019.3 -4076.3L1022.9 -4013.1L1084.1 -3911.4L1152.9 -3826.6L1222.9 -3810.3L1347.8 -3804.6L1419.8 -3797.3L1457.7 -3772.4L1464.8 -3742.3L1491.7 -3696.6L1490.7 -3623.3L1469.7 -3566.0L1442.6 -3543.8L1343.3 -3472.3L1266.1 -3418.8L1157.3 -3362.7L1049.7 -3345.1L995.0 -3351.9L944.8 -3367.4L899.7 -3362.9L763.8 -3372.2L709.3 -3359.2L680.1 -3344.0L567.4 -3192.6L501.9 -3131.9L464.1 -3105.5L450.4 -3075.9L452.6 -3051.7L461.9 -2978.0L487.8 -2889.0L510.4 -2828.7L522.9 -2771.9L558.3 -2659.9L594.2 -2598.3L617.3 -2532.0L634.3 -2453.0L637.6 -2353.0L609.5 -2262.4L548.1 -2175.4L483.2 -2124.3L419.5 -2092.2L328.0 -2065.2L274.3 -2008.0L213.0 -1904.9L191.8 -1800.1L158.1 -1736.6L131.3 -1683.6L125.0 -1630.5L162.0 -1579.8L209.9 -1515.8L279.3 -1399.3L297.4 -1330.8L295.7 -1315.8L289.6 -1259.3L279.0 -1193.8L253.0 -1150.1L219.7 -1113.5L146.1 -1075.4L57.5 -1055.1L-64.5 -1047.1L-224.1 -1025.6L-256.8 -1013.4L-286.3 -993.8L-293.5 -961.1L-335.4 -912.6L-366.6 -818.6L-341.4 -744.0L-306.3 -697.1L-258.3 -650.7L-208.5 -574.8L-126.1 -516.5L-22.7 -450.3L48.0 -445.2L124.3 -424.0L153.4 -440.8L181.7 -482.3L273.5 -541.8L375.9 -578.1L428.5 -583.8L470.4 -575.5L504.4 -503.0L518.1 -459.8L508.4 -444.1L503.6 -364.1L505.1 -315.3L492.4 -273.0L476.0 -247.5L429.2 -220.6L386.9 -215.3L333.8 -200.3L287.0 -172.9L247.5 -155.4L190.8 -154.7L119.6 -174.2L79.1 -167.5L44.6 -129.9L32.1 -108.5L17.9 -63.6L9.0 -16.0L-58.6 69.2L-91.7 132.7L-138.3 221.4L-212.0 304.2L-338.6 509.1L-394.5 625.1L-440.3 685.5L-458.8 733.7L-448.9 776.6L-424.8 813.9L-284.8 953.8L-238.3 978.8L-187.2 1029.2L-165.7 1051.4L-132.3 1086.2L-110.2 1114.4L-40.4 1173.6L43.0 1236.5L125.6 1252.7L181.6 1257.3L229.8 1295.5L247.0 1320.5L261.5 1428.6L247.0 1522.3L226.8 1613.3L224.9 1798.9L278.9 1908.6L288.8 1934.8L319.4 1949.3L328.1 1951.5L369.5 1956.0L437.1 1952.7L501.7 1932.2L526.2 1909.4L535.4 1869.6L571.9 1851.1L657.1 1833.5L743.8 1835.2L897.8 1854.4L1080.3 1934.5L1153.5 2004.8L1185.8 2075.0L1167.7 2216.8L1130.1 2277.8L1117.8 2281.7L1104.5 2285.9L1074.1 2321.3L1010.6 2441.3L988.2 2495.2L972.5 2568.6L955.7 2711.5L925.2 2849.7L915.9 2965.6L924.4 3034.2L942.0 3106.1L981.8 3160.2L1032.6 3186.0L1052.4 3194.1L1152.1 3235.2L1233.9 3304.3L1238.3 3347.5L1273.3 3422.2L1294.4 3515.0L1268.7 3618.2L1212.7 3681.1L1151.2 3714.6L1078.5 3744.2L1046.7 3805.2L1041.7 3883.2L1051.1 3959.8L1093.3 4029.9L1280.7 4153.3L1332.9 4174.5L1343.9 4194.7L1357.1 4212.0L1422.9 4231.7L1492.3 4236.8L1559.4 4280.6L1588.5 4343.1L1612.2 4335.8L1619.7 4401.8L1655.1 4471.3L1756.4 4619.5L1827.4 4688.7L2039.0 4788.7L2076.8 4798.3L2248.7 4818.5L2347.4 4819.6L2422.7 4864.4L2518.5 4915.0L2638.1 4937.1L2771.0 4905.3L2908.3 4853.1L3009.5 4764.8L3117.6 4648.1L3225.0 4467.0L3330.9 4353.7L3362.5 4332.6L3401.6 4318.6L3460.4 4317.1L3481.5 4334.1L3507.1 4334.4L3578.1 4280.3L3629.8 4240.8L3693.0 4187.8L3785.8 4156.9L3869.2 4178.1L3993.3 4242.6L4041.4 4310.6L4106.7 4478.5L4170.6 4532.8L4318.7 4535.0L4460.9 4464.3L4560.2 4387.5L4611.4 4345.9L4676.3 4200.1L4718.3 4158.8L4768.6 4140.1L4857.8 4163.9L4992.9 4270.8L5037.5 4383.5L5037.5 4464.3L5076.4 4516.9L5148.4 4554.0L5240.2 4569.5L5391.0 4511.4"/><path d="M1409.7 -2053.8L1372.6 -1951.7L1340.8 -1870.4L1332.7 -1858.6L1309.8 -1841.8L1290.9 -1834.6L1147.7 -1782.9L1070.8 -1755.7L1052.1 -1742.2L1046.2 -1731.1L1039.4 -1712.9L1038.1 -1690.0L1046.2 -1605.6L1063.6 -1455.1L1064.0 -1416.5L1062.7 -1321.1L1059.3 -1244.7L1062.7 -1219.7L1075.8 -1155.2L1094.9 -1084.0L1118.3 -1023.8L1120.4 -1001.7L1115.7 -979.2L1107.2 -958.4L1093.7 -937.2L1059.3 -900.3L1030.0 -853.7L946.9 -723.5L859.5 -571.2L842.1 -454.2L806.7 -239.7L798.4 -190.0L859.9 -118.6L988.8 36.9L1009.9 62.4L1060.6 163.8L1149.7 342.4L1181.7 404.4L1194.9 663.7L1206.8 924.0L1213.1 1075.1L1283.0 1198.1L1389.3 1386.8L1422.4 1449.0L1486.1 1532.2L1546.8 1593.4L1568.4 1613.0L1638.1 1639.6L1681.2 1647.6L1775.0 1646.1L2043.8 1632.6L2295.0 1622.0L2424.9 1620.0L2528.7 1634.6L2601.9 1649.6L2636.0 1657.1L2657.1 1667.2L2682.7 1694.8L2744.4 1780.5L2789.0 1841.7L2804.5 1854.3L2832.6 1862.8L2865.2 1866.8L2907.8 1865.3L2957.0 1860.8L3073.8 1838.2L3090.4 1803.6L3169.6 1773.0L3229.8 1751.9L3248.0 1754.1L3261.0 1758.5"/></g>
<g fill="#262422"><path d="M641.3 450.8L653.7 450.5L672.0 450.1L672.2 459.4L672.3 462.5L667.9 462.6L654.3 462.9L654.5 469.6L641.7 469.9L641.3 450.8Z"/><path d="M631.6 417.0L631.8 416.1L638.9 417.7L637.4 424.1L627.2 421.7L628.4 416.2L631.6 417.0Z"/><path d="M701.5 378.0L689.7 370.6L687.7 373.7L670.5 362.9L665.3 371.2L679.0 379.8L675.8 384.8L675.2 384.4L674.2 385.9L671.7 384.3L668.0 390.3L682.9 399.6L685.4 395.6L687.8 397.1L691.2 395.6L693.5 397.3L696.6 393.3L694.5 391.6L693.8 388.2L691.2 386.6L693.1 383.6L696.6 385.8L701.5 378.0Z"/><path d="M750.7 456.6L737.6 456.0L737.3 462.6L750.4 463.2L750.7 456.6Z"/><path d="M667.9 462.6L668.3 469.3L668.4 470.6L680.0 470.1L679.9 462.3L676.8 462.5L676.6 459.2L672.2 459.4L672.3 462.5L667.9 462.6Z"/></g>
<g fill="none" stroke="#35322e" stroke-linecap="round" stroke-linejoin="round"><path d="M1045.2 508.3L1047.4 494.8L1049.4 485.8L1049.6 471.0L1040.8 468.1L1030.6 468.3L1020.0 472.8L1013.6 477.2L1010.3 482.3L999.1 496.4" stroke-width="4.5"/><path d="M725.2 268.9L686.9 271.0L666.1 257.3L659.7 255.0L652.9 253.6L604.8 247.2" stroke-width="4.5"/><path d="M283.1 89.9L392.0 23.4L487.1 17.2L495.9 21.0L510.6 46.8L542.8 103.7" stroke-width="4.5"/><path d="M510.6 46.8L331.0 153.6" stroke-width="4.5"/><path d="M616.2 386.3L563.5 369.0" stroke-width="4.5"/><path d="M266.1 -65.3L246.5 -52.2L211.5 -27.0L206.4 -14.0L221.2 6.1L283.1 89.9L331.0 153.6L378.1 216.7L383.5 224.0L408.5 269.0L434.6 323.1L454.5 392.5L461.1 450.3L463.8 483.7L470.3 500.8" stroke-width="4.5"/><path d="M604.8 247.2L563.5 369.0L551.7 406.1L535.6 459.4L528.2 484.8L525.0 522.2L530.5 589.0L537.9 659.5L543.1 754.4L545.5 767.6" stroke-width="4.5"/><path d="M952.4 470.6L964.2 481.8L984.4 488.7L999.1 496.4L1006.1 524.2L1008.1 539.9L1013.4 550.7L1024.2 560.6L1034.2 566.2" stroke-width="4.5"/><path d="M556.5 127.6L585.7 176.6L586.0 188.1L565.5 245.0L508.1 422.1L483.3 500.7L481.3 512.7" stroke-width="4.5"/><path d="M714.0 54.8L699.0 57.6L694.1 58.5L656.7 64.9" stroke-width="4.5"/><path d="M539.4 122.9L422.3 191.9L378.1 216.7" stroke-width="4.5"/><path d="M555.4 102.0L552.2 101.3L548.9 101.3L545.7 102.1L542.8 103.7L540.2 106.1L538.2 109.2L537.2 112.6L537.0 116.2L537.8 119.7L539.4 122.9L541.5 125.3L544.1 127.1L547.1 128.4L550.3 128.8L553.5 128.6L556.5 127.6L559.5 125.7L562.0 123.1L563.7 120.0L564.5 116.6L564.5 113.0L563.5 109.6L562.4 107.5L560.9 105.6L558.4 103.5L555.4 102.0" stroke-width="4.5"/><path d="M616.7 68.8L612.2 75.6L607.1 81.3" stroke-width="4.5"/><path d="M907.8 275.1L903.9 275.9L897.8 276.6L874.4 283.8L870.1 285.1L847.7 292.8L846.8 310.4L845.7 313.4L839.9 329.3L838.8 330.7L820.4 352.1L803.1 372.3L775.4 394.6" stroke-width="4.5"/><path d="M716.1 204.9L756.4 190.0L797.9 176.7L834.2 165.4L836.8 164.6L864.7 155.8L866.4 155.3L899.5 144.5L926.4 134.8" stroke-width="4.5"/><path d="M942.5 426.7L931.7 426.7L910.5 415.7L872.0 398.2L865.0 399.5L858.4 400.7L826.0 407.2L796.1 415.4L791.3 414.3L788.4 411.2L775.4 394.6L765.4 383.8" stroke-width="4.5"/><path d="M820.4 352.1L805.0 333.0L793.1 310.5L776.3 253.5L756.4 190.0L751.6 170.1L739.5 145.5L715.4 96.3L694.1 58.5" stroke-width="4.5"/><path d="M673.2 117.4L715.4 96.3L743.2 80.4L767.0 67.9L778.5 61.9L776.9 53.5L798.6 37.3L801.6 35.3L813.4 27.4" stroke-width="4.5"/><path d="M864.7 155.8L874.7 185.4L880.2 194.1L890.6 223.9L891.3 226.2L890.9 234.7L903.9 275.9" stroke-width="4.5"/><path d="M776.3 253.5L817.7 243.6L858.9 233.3L890.6 223.9" stroke-width="3"/><path d="M797.9 176.7L817.7 243.6L828.9 287.8L845.7 313.4" stroke-width="4.5"/><path d="M874.4 283.8L858.9 233.3L836.8 164.6L820.7 117.2L812.0 95.1" stroke-width="4.5"/><path d="M773.1 135.3L786.1 131.6L796.6 128.6L799.0 127.3L802.9 125.3L812.4 119.9L820.7 117.2" stroke-width="4.5"/><path d="M786.1 131.6L797.9 176.7" stroke-width="4.5"/><path d="M724.9 265.3L755.6 259.6L776.3 253.5" stroke-width="4.5"/><path d="M755.6 259.6L769.0 319.6" stroke-width="2.5"/><path d="M999.1 496.4L973.7 543.4L974.4 575.7" stroke-width="4.5"/><path d="M964.2 481.8L935.9 537.4L940.1 581.2" stroke-width="4.5"/><path d="M952.4 470.6L925.3 485.6L907.0 520.9L903.7 528.4L901.9 537.2L901.9 546.1L905.4 586.7" stroke-width="4.5"/><path d="M508.1 422.1L464.9 407.7" stroke-width="4.5"/><path d="M503.2 521.0L485.6 514.3L481.3 512.7L470.3 500.8" stroke-width="4.5"/><path d="M630.9 514.7L639.1 534.2" stroke-width="4.5"/><path d="M590.6 516.5L590.1 483.7L594.1 461.2L614.0 393.9L616.2 386.3L659.7 255.0" stroke-width="4.5"/><path d="M633.9 474.4L693.3 471.6L731.2 476.8L752.2 476.6" stroke-width="4.5"/><path d="M752.2 476.6L770.4 470.4L774.3 468.8" stroke-width="3"/><path d="M891.6 588.9L889.9 580.0L885.9 573.5L875.3 571.3L869.8 560.9L864.5 541.9L860.5 516.3L860.1 499.7L863.9 488.1L877.5 462.9L901.1 461.1L919.9 459.1L923.4 452.2" stroke-width="4.5"/><path d="M952.4 470.6L951.8 461.5L942.5 426.7L911.0 316.7L907.8 275.1" stroke-width="4.5"/><path d="M755.5 435.5L752.4 446.7L752.2 476.6L770.4 470.4L768.7 466.1L757.1 437.3L756.6 435.8L755.5 435.5" stroke-width="3"/><path d="M767.0 67.9L799.0 127.3" stroke-width="2.5"/><path d="M778.5 61.9L799.2 100.7" stroke-width="2.5"/><path d="M801.6 35.3L817.8 64.8" stroke-width="2.5"/><path d="M773.1 135.3L750.8 142.0" stroke-width="2.5"/><path d="M739.5 145.5L750.8 142.0" stroke-width="3"/><path d="M812.0 95.1L844.9 81.7L857.7 125.8" stroke-width="4.5"/><path d="M799.2 100.7L812.0 95.1" stroke-width="2.5"/><path d="M813.4 27.4L852.8 75.8L858.9 123.1L857.7 125.8L864.7 155.8" stroke-width="4.5"/><path d="M899.5 144.5L909.8 177.8L923.5 211.3L933.8 226.3" stroke-width="4.5"/><path d="M907.8 275.1L926.4 247.4L933.8 226.3L941.0 205.6L926.4 134.8" stroke-width="4.5"/><path d="M952.4 470.6L940.8 465.8L929.6 465.0L923.4 452.2L913.0 441.6L894.6 432.3L867.8 429.0L842.5 432.3L769.9 458.7" stroke-width="4.5"/><path d="M838.8 330.7L848.9 336.4L856.8 360.7L865.0 399.5" stroke-width="4.5"/><path d="M563.5 109.6L573.2 101.8" stroke-width="4.5"/><path d="M573.2 101.8L560.9 105.6" stroke-width="4.5"/><path d="M826.3 -201.3L832.9 -190.1L831.9 -176.0L832.9 -162.5L842.0 -149.8L855.2 -140.9L875.6 -131.8L886.5 -105.1L893.2 -96.5L911.1 -84.0L922.1 -60.4L936.2 -42.8L945.0 -33.7L947.4 -20.1L942.0 3.2L930.7 13.5L928.7 27.3L943.3 86.7L929.6 106.9L926.9 120.2" stroke-width="4.5"/><path d="M549.3 -48.4L565.0 -52.5L574.7 -51.8L586.4 -51.6L598.3 -53.3L610.9 -58.2L620.6 -65.3L634.8 -72.1L646.7 -75.2L659.3 -76.1L669.2 -75.0L678.0 -70.1L685.8 -65.9L692.8 -58.4L697.5 -51.8L700.3 -45.2L702.3 -37.2L706.1 -27.3L711.6 -19.6L719.3 -14.0L731.9 -9.8L743.2 -9.6L754.2 -13.8L763.9 -18.4L772.3 -19.3L784.2 -18.9L793.7 -14.7L801.7 -9.0L807.6 -0.6L820.7 18.9L839.6 45.8L846.5 57.7L851.6 68.1L852.8 75.8" stroke-width="4.5"/><path d="M617.5 11.7L627.9 7.4L650.9 -0.8" stroke-width="4.5"/><path d="M622.9 -9.6L627.9 7.4L650.8 53.9L673.4 43.6" stroke-width="4.5"/><path d="M221.2 6.1L228.3 5.6L237.1 5.2L249.3 2.5L257.9 -3.7L269.4 -11.4L273.6 -17.6L266.1 -65.3" stroke-width="2.5"/><path d="M422.3 191.9L433.4 202.4L565.5 245.0" stroke-width="4.5"/><path d="M485.6 514.3L485.9 523.1L493.0 588.7L504.3 689.4L504.1 713.9L504.9 735.5" stroke-width="4.5"/><path d="M647.5 403.3L614.0 393.9" stroke-width="4.5"/><path d="M604.8 247.2L582.9 243.7" stroke-width="4.5"/><path d="M673.4 43.6L650.9 -0.8" stroke-width="4.5"/><path d="M732.5 57.0L743.2 80.4L773.1 135.3" stroke-width="4.5"/><path d="M391.3 471.1L376.5 499.5L358.0 553.6" stroke-width="4.5"/><path d="M649.9 434.6L646.3 447.2L637.9 445.6" stroke-width="1.4"/><path d="M654.4 419.3L659.2 402.7" stroke-width="1.4"/><path d="M647.7 417.4L654.4 419.3L661.8 421.4L657.6 436.7L649.9 434.6L643.5 432.8L647.7 417.4" stroke-width="3"/><path d="M596.8 512.7L597.5 516.2L597.7 519.8" stroke-width="1.4"/><path d="M750.3 432.5L750.6 429.7L750.9 426.0" stroke-width="1.4"/><path d="M755.6 420.4L758.2 420.9L762.0 421.7" stroke-width="1.4"/><path d="M464.9 407.7L449.7 407.2L436.3 410.1" stroke-width="4.5"/><path d="M436.3 410.1L425.8 417.1L416.9 427.7L391.3 471.1" stroke-width="4.5"/><path d="M926.9 120.2L926.4 134.8" stroke-width="4.5"/><path d="M456.8 474.8L449.7 407.2" stroke-width="1.4"/><path d="M463.8 483.7L456.8 474.8" stroke-width="1.4"/><path d="M415.7 477.3L391.3 471.1" stroke-width="4.5"/><path d="M459.8 511.4L459.4 554.4L446.3 649.4" stroke-width="1.4"/><path d="M347.5 -16.0L344.7 -33.9L315.3 -64.6L307.8 -70.0L299.2 -73.7L291.0 -74.3L277.6 -72.5L266.1 -65.3L263.3 -72.8" stroke-width="2.5"/><path d="M507.8 -88.0L504.2 -85.9L511.1 -59.1L527.2 -43.5L534.1 -35.6L545.9 -30.0L555.8 -22.7L562.9 -17.3L570.6 -10.8L583.4 4.6L594.8 15.5L603.8 24.7L607.6 30.6L609.4 37.3" stroke-width="1.4"/><path d="M910.5 415.7L910.0 408.2L889.5 370.5L877.7 339.9L866.8 331.2L854.3 332.1L848.9 336.4" stroke-width="4.5"/><path d="M644.7 70.3L656.7 64.9" stroke-width="4.5"/><path d="M656.7 64.9L642.4 62.8" stroke-width="4.5"/><path d="M607.1 81.3L615.7 81.2L621.4 81.1" stroke-width="4.5"/><path d="M607.1 81.3L573.2 101.8" stroke-width="4.5"/><path d="M692.2 43.7L659.4 -19.7L645.9 -13.9" stroke-width="4.5"/><path d="M673.4 43.6L676.7 47.7L680.6 49.6L692.2 43.7" stroke-width="4.5"/><path d="M692.2 43.7L699.0 57.6" stroke-width="4.5"/><path d="M645.9 -13.9L644.4 -17.5" stroke-width="4.5"/><path d="M645.9 -13.9L650.9 -0.8" stroke-width="4.5"/></g>
<g fill="none" stroke="#4a4239" stroke-linecap="round" stroke-linejoin="round"><path d="M191.4 -21.4L263.3 -72.8L277.6 -79.5L288.8 -82.3L298.0 -82.8L308.2 -80.5L318.3 -74.3L364.3 -29.7L380.4 -20.8L397.1 -18.8L479.9 -22.6L500.9 -18.3L567.9 13.4L589.7 30.3L598.2 37.7L609.6 47.9" stroke-width="7"/><path d="M765.4 383.8L737.8 348.8L733.5 337.1L729.2 315.6L725.2 268.9L724.9 265.3L722.5 237.3L716.1 204.9L702.2 178.1L673.2 117.4L657.1 88.6" stroke-width="6"/><path d="M175.3 -9.1L191.4 -21.4" stroke-width="7"/><path d="M90.2 -66.6L122.7 -35.4L136.5 -20.3L152.8 -7.4L162.2 -5.9L175.3 -9.1" stroke-width="7"/><path d="M758.1 431.9L750.6 429.7L659.2 402.7L648.4 399.8L647.5 403.3L638.5 440.5L637.9 445.6L633.9 474.4L630.9 514.7" stroke-width="6"/><path d="M521.4 748.5L520.6 725.5L520.4 718.9L518.5 685.3L504.5 550.9L503.2 521.0L505.3 491.2L511.4 464.6L582.9 243.7L629.0 101.9" stroke-width="7"/><path d="M640.4 60.4L636.7 57.9L632.4 56.6L627.9 56.7" stroke-width="7"/><path d="M863.6 669.4L862.4 662.1L851.2 627.6L836.0 595.1L799.0 527.0L777.9 475.9L774.3 468.8L769.9 458.7L758.1 431.9L758.2 420.9L758.3 408.2L765.4 383.8" stroke-width="6"/><path d="M630.9 514.7L597.5 516.2L590.6 516.5L571.7 518.4L547.5 520.9L525.0 522.2L511.3 523.0L503.2 521.0" stroke-width="6"/><path d="M428.2 -856.7L431.1 -819.2L437.9 -768.1L439.2 -740.5L438.7 -709.0L438.7 -686.8L443.9 -678.1L453.1 -668.8L493.4 -642.2L523.5 -620.2L534.1 -607.5L539.0 -602.3L549.2 -580.3L558.1 -547.6L565.2 -533.3L577.9 -520.0L591.4 -513.5L603.0 -509.9L622.9 -509.6L632.1 -508.7L635.9 -506.6L640.6 -500.8L640.7 -496.2L638.3 -486.2L635.2 -479.2L622.0 -461.2L612.0 -450.1L609.8 -442.2L609.9 -436.4L611.4 -431.0L616.6 -423.6L633.1 -415.7L653.8 -407.7L677.2 -392.4L684.6 -384.7L686.7 -377.3L686.9 -370.7L680.4 -353.9L678.6 -345.7L679.3 -328.3L678.6 -315.7L673.7 -304.3L654.6 -287.0L636.0 -263.1L607.8 -229.0L604.4 -221.3L604.7 -212.2L606.4 -206.7L611.2 -197.5L624.8 -184.4L641.8 -169.2L644.3 -164.0L645.7 -158.2L644.7 -146.7L640.0 -140.2L630.2 -134.2L618.6 -129.0L597.1 -126.1L572.3 -123.2L558.8 -118.7L527.3 -100.1L522.8 -91.5L521.6 -84.1L523.1 -73.5L534.8 -60.5L549.3 -48.4L554.1 -44.2L572.7 -34.1L595.3 -24.8L604.2 -15.6L612.5 0.1L617.5 11.7L620.8 19.9L627.9 34.7" stroke-width="7"/><path d="M609.6 47.9L613.2 55.0L617.7 65.1" stroke-width="7"/><path d="M624.6 57.8L621.5 54.8L618.0 52.5L609.6 47.9" stroke-width="7"/><path d="M640.4 60.4L638.2 53.6L630.7 38.8L627.9 34.7" stroke-width="7"/><path d="M627.9 34.7L627.9 42.2L627.7 46.0L627.9 52.7L627.9 56.7" stroke-width="7"/><path d="M623.8 82.8L625.6 88.7L629.0 101.9" stroke-width="7"/><path d="M629.0 101.9L636.5 83.3" stroke-width="7"/><path d="M644.0 74.9L644.7 70.3" stroke-width="7"/><path d="M639.5 81.4L642.2 78.5L644.0 74.9" stroke-width="7"/><path d="M636.5 83.3L639.5 81.4" stroke-width="7"/><path d="M623.8 82.8L627.9 84.3L632.3 84.5L636.5 83.3" stroke-width="7"/><path d="M621.4 81.1L623.8 82.8" stroke-width="7"/><path d="M616.7 68.8L616.9 73.4L618.5 77.6L621.4 81.1" stroke-width="7"/><path d="M617.7 65.1L616.7 68.8" stroke-width="7"/><path d="M624.6 57.8L620.5 60.8L617.7 65.1" stroke-width="7"/><path d="M627.9 56.7L624.6 57.8" stroke-width="7"/><path d="M642.4 62.8L640.4 60.4" stroke-width="7"/><path d="M644.7 70.3L644.0 66.4L642.4 62.8" stroke-width="7"/><path d="M639.5 81.4L644.2 81.8L647.7 82.5L653.2 85.3L657.1 88.6" stroke-width="6"/><path d="M657.1 88.6L656.1 84.0L652.8 79.4L647.8 76.1L644.0 74.9" stroke-width="6"/></g>
<circle cx="600.0" cy="240.0" r="26" fill="#C4A882" fill-opacity=".18"/>
<circle cx="600.0" cy="240.0" r="11" fill="#C4A882"/>
</svg>
